<svg width="303" height="353" viewBox="0 0 303 353" fill="none" xmlns="http://www.w3.org/2000/svg">
<path d="M141.5 281.5L16.5 126.5L85.5 97L126 24.5L252.5 187.5L212.5 244.5L141.5 281.5Z" fill="#E0D0AA"/>
<path d="M141 346.5L6 180.5L10 124.5M141 346.5L292 296.5L297 256.5M141 346.5V317.5M297 256.5L141 317.5M297 256.5L282.5 240.567M141 317.5L140.5 283.5M140.5 283.5L10 124.5M140.5 283.5C175.333 272.167 246.2 235.7 251 180.5L145.384 45M10 124.5C98.3153 110.464 121.429 46.1367 122 15L145.384 45M275 213L295.5 228C291.785 232.287 287.403 236.484 282.5 240.567M145.384 45L157.5 40.5L285 191C278.333 211.833 239.187 263.4 140.787 303C174 296.948 244.511 272.2 282.5 240.567" stroke="#760303" stroke-width="10"/>
<path d="M96 180.5L147 205.5L161 100" stroke="#760303" stroke-width="10"/>
</svg>
