<svg width="392" height="404" viewBox="0 0 392 404" fill="none" xmlns="http://www.w3.org/2000/svg">
<path d="M238.5 156L34.5 359" stroke="white" stroke-width="32"/>
<path d="M355.001 77C355.001 77 379.001 64 379.001 50.5C379.001 38.4793 371.072 26.0622 369.334 23.4852C369.112 23.1556 368.837 22.8757 368.522 22.6326C360.345 16.3136 356.208 11.5568 341 14.5C325.5 17.5 311 37 311 37M355.001 77C355.001 77 374.001 101.5 377 109C379.873 116.185 375.407 142.64 375.026 144.852C375.007 144.962 374.988 145.048 374.954 145.154C374.547 146.419 371.201 155.317 355.001 165.5C337.5 176.5 311 171 311 171M355.001 77L329.5 82.5M311 171L240.669 156.548C239.059 156.218 237.815 154.935 237.534 153.316L226 87M311 171L281.6 115.63C281.21 114.895 280.6 114.3 279.856 113.928L226 87M226 87C226 87 220.001 68 226.001 47.5C232.001 27 230.999 31 241 23C251 15 262 10.5 277 14.5C292 18.5 311 37 311 37M311 37L309.5 64.5" stroke="white" stroke-width="26"/>
<path d="M355.001 77C355.001 77 379.001 64 379.001 50.5C379.001 38.4793 371.072 26.0622 369.334 23.4852C369.112 23.1556 368.837 22.8757 368.522 22.6326C360.345 16.3136 356.208 11.5568 341 14.5C325.5 17.5 311 37 311 37M355.001 77C355.001 77 374.001 101.5 377 109C379.873 116.185 375.407 142.64 375.026 144.852C375.007 144.962 374.988 145.048 374.954 145.154C374.547 146.419 371.201 155.317 355.001 165.5C337.5 176.5 311 171 311 171M355.001 77L329.5 82.5M311 171L240.669 156.548C239.059 156.218 237.815 154.935 237.534 153.316L226 87M311 171L281.6 115.63C281.21 114.895 280.6 114.3 279.856 113.928L226 87M226 87C226 87 220.001 68 226.001 47.5C232.001 27 230.999 31 241 23C251 15 262 10.5 277 14.5C292 18.5 311 37 311 37M311 37L309.5 64.5" stroke="#760303" stroke-width="20"/>
<path d="M325 92.5C325 96.9468 322.384 102.596 317.092 107.496C311.825 112.375 305.503 115 300.5 115C295.561 115 289.542 112.431 284.558 107.638C279.566 102.838 277 97.1578 277 92.5C277 87.8061 279.6 81.9756 284.636 77.0363C289.667 72.1019 295.666 69.5 300.5 69.5C305.4 69.5 311.7 72.1612 317.013 77.1798C322.347 82.2176 325 88.0145 325 92.5Z" stroke="white" stroke-width="22"/>
<path d="M326 92.5C326 97.3082 323.198 103.205 317.772 108.23C312.368 113.235 305.814 116 300.5 116C295.244 116 288.988 113.286 283.865 108.359C278.734 103.425 276 97.5 276 92.5C276 87.4671 278.765 81.3939 283.936 76.3224C289.102 71.2552 295.34 68.5 300.5 68.5C305.72 68.5 312.255 71.3092 317.7 76.4528C323.164 81.614 326 87.6566 326 92.5Z" stroke="#760303" stroke-width="20"/>
<path d="M163.5 330L149.064 346.287C146.924 348.701 142.952 347.718 142.185 344.584L134.164 311.799C133.428 308.793 129.703 307.725 127.487 309.885L78.4477 357.666C76.3645 359.696 77.0754 363.2 79.785 364.258L108.69 375.537C111.526 376.644 112.135 380.388 109.796 382.337L97 393" stroke="white" stroke-width="28"/>
<path d="M238.5 156L34.5 359" stroke="#760303" stroke-width="26"/>
<path d="M163.5 330L149.064 346.287C146.924 348.701 142.952 347.718 142.185 344.584L134.164 311.799C133.428 308.793 129.703 307.725 127.487 309.885L78.4477 357.666C76.3645 359.696 77.0754 363.2 79.785 364.258L108.69 375.537C111.526 376.644 112.135 380.388 109.796 382.337L97 393" stroke="#760303" stroke-width="22"/>
<path d="M9 343L54 386" stroke="white" stroke-width="24"/>
<path d="M12 343L54 382" stroke="#760303" stroke-width="20"/>
<path d="M138.5 230L165.5 256.5" stroke="#760303" stroke-width="20"/>
</svg>
