<svg width="229" height="277" viewBox="0 0 229 277" fill="none" xmlns="http://www.w3.org/2000/svg">
<path d="M188.656 261.986V229.12C188.656 227.215 190.023 225.577 191.881 225.156C232.191 216.041 224.336 197.269 218 169C206.213 116.412 262.356 17.0211 123.5 5C-50.1582 5 22.9442 142.813 12.5375 171.749C-0.180005 207.11 1.20966 216.21 42.723 225.168C44.5785 225.568 45.9332 227.206 45.9332 229.105V264.189C45.9332 268.111 50.9911 269.69 53.2227 266.464L60.4694 255.991C61.9349 253.872 64.9911 253.671 66.7216 255.579L78.5667 268.638C80.185 270.422 83.0015 270.382 84.568 268.552L89.1352 263.218C90.8421 261.224 93.9741 261.387 95.4653 263.547L98.9077 268.532C100.209 270.417 102.826 270.826 104.64 269.428L114.95 261.486C116.581 260.23 118.899 260.416 120.307 261.916L126.771 268.799C128.384 270.517 131.124 270.475 132.684 268.71L138.275 262.383C139.777 260.684 142.39 260.572 144.032 262.136L151.125 268.895C152.859 270.548 155.647 270.316 157.085 268.399L166.661 255.632C168.146 253.652 171.055 253.483 172.76 255.276L181.757 264.742C184.246 267.36 188.656 265.599 188.656 261.986Z" fill="#E0D0AA" stroke="#760303" stroke-width="10"/>
<path d="M95.5528 185.651L106.479 159.974C108.55 155.107 115.449 155.107 117.521 159.974L128.447 185.651C130.131 189.608 127.227 194 122.926 194H101.074C96.7728 194 93.8687 189.608 95.5528 185.651Z" fill="#760303" stroke="#760303" stroke-width="10"/>
<path d="M53.5447 73.742C24.6947 83.3586 38.9311 111.454 49.6556 124.3C60.9998 124.3 84.8165 118.5 87.4998 118.5C89.9999 118.5 91.6106 99.5514 92.7891 86.8235C91.7284 78.456 82.3946 64.1254 53.5447 73.742Z" fill="#760303" stroke="#760303" stroke-width="10"/>
<path d="M145.957 71.9389C115.875 76.3997 125.017 106.541 133.348 121.054C145.977 121.366 169.046 125.308 171.729 125.308C176 125.308 178.963 103.966 182.334 91.6363C182.742 83.2119 176.039 67.4781 145.957 71.9389Z" fill="#760303" stroke="#760303" stroke-width="10"/>
</svg>
