<?xml version="1.0" standalone="no"?>
<!DOCTYPE svg PUBLIC "-//W3C//DTD SVG 20010904//EN"
 "http://www.w3.org/TR/2001/REC-SVG-20010904/DTD/svg10.dtd">
<svg version="1.0" xmlns="http://www.w3.org/2000/svg"
 width="633.000000pt" height="633.000000pt" viewBox="0 0 633.000000 633.000000"
 preserveAspectRatio="xMidYMid meet">
<metadata>
Created by potrace 1.14, written by Peter Selinger 2001-2017
</metadata>
<g transform="translate(0.000000,633.000000) scale(0.100000,-0.100000)"
fill="#000000" stroke="none">
<path d="M2836 6303 c6 -63 16 -162 23 -215 5 -37 4 -62 -3 -69 -8 -9 -8 -10
0 -6 8 5 13 -7 16 -35 3 -31 0 -42 -12 -45 -8 -2 -20 -15 -27 -29 -6 -13 -8
-22 -3 -19 12 8 9 -358 -4 -374 -8 -11 -8 -13 0 -8 8 4 11 -101 11 -368 0
-206 -3 -372 -7 -370 -4 2 -5 -6 -3 -18 4 -22 -37 -176 -62 -232 -26 -59 -50
-130 -47 -140 19 -56 19 -345 1 -345 -5 0 -6 -6 -3 -14 8 -22 -22 -127 -57
-199 -35 -73 -89 -133 -169 -187 -169 -115 -268 -284 -309 -530 -17 -105 -13
-2574 4 -2641 8 -28 11 -57 8 -65 -3 -8 -1 -14 5 -14 17 0 32 -56 19 -69 -9
-9 -7 -10 7 -5 13 5 17 4 13 -3 -4 -6 -3 -13 2 -15 5 -1 11 -9 13 -17 4 -17
42 -64 80 -99 15 -14 25 -29 21 -35 -4 -6 -1 -7 7 -2 8 5 18 1 27 -11 8 -10
16 -18 19 -16 2 2 18 1 35 -3 26 -6 28 -9 17 -23 -9 -12 -6 -11 10 2 12 11 22
14 22 8 0 -7 7 -9 17 -5 12 5 14 3 8 -8 -7 -11 -6 -12 6 -3 8 6 55 11 106 12
81 0 91 -2 87 -16 -5 -15 -5 -15 5 -1 8 13 30 16 118 16 66 1 114 -4 122 -11
12 -8 13 -8 7 2 -5 8 0 12 15 12 17 0 19 -3 10 -13 -8 -10 -7 -14 4 -14 7 0
13 5 12 11 -3 16 413 18 432 2 11 -8 13 -8 7 2 -5 8 0 12 15 12 17 0 19 -3 10
-13 -8 -10 -7 -14 4 -14 7 0 13 5 12 10 -1 6 24 12 57 14 46 4 56 2 50 -9 -6
-10 -5 -10 7 -2 8 7 55 11 117 10 57 0 106 2 109 7 2 4 15 7 28 7 13 0 44 11
67 24 24 13 50 21 58 19 12 -4 12 -2 2 5 -10 7 -5 16 23 40 20 18 33 32 29 32
-4 0 0 8 8 18 27 31 93 191 98 237 0 3 1 6 1 8 1 1 2 234 3 517 1 283 5 520 9
526 3 6 3 14 0 18 -4 4 -8 350 -8 769 -2 846 -1 834 -69 1003 -59 145 -130
233 -259 321 -38 25 -83 65 -101 87 -39 48 -78 121 -69 130 4 3 2 6 -4 6 -11
0 -29 53 -39 115 -3 22 -9 59 -14 82 -13 73 -6 273 11 284 8 5 9 9 2 9 -6 0
-9 8 -6 18 2 10 -14 66 -36 124 -81 214 -80 198 -80 783 -1 286 -1 550 -1 588
0 65 -1 67 -26 67 l-25 0 7 73 c9 97 12 142 13 205 1 40 4 51 14 46 9 -6 9 -4
2 7 -6 8 -10 26 -9 42 l1 27 -312 0 -312 0 3 -27z"/>
<path d="M3853 75 c0 -8 4 -12 9 -9 5 3 6 10 3 15 -9 13 -12 11 -12 -6z"/>
<path d="M3039 78 c-6 -20 -6 -39 0 -42 4 -3 7 6 7 20 0 20 -4 32 -7 22z"/>
<path d="M2816 57 c3 -10 9 -15 12 -12 3 3 0 11 -7 18 -10 9 -11 8 -5 -6z"/>
<path d="M3296 57 c3 -10 9 -15 12 -12 3 3 0 11 -7 18 -10 9 -11 8 -5 -6z"/>
<path d="M2896 52 c-3 -5 1 -9 9 -9 8 0 12 4 9 9 -3 4 -7 8 -9 8 -2 0 -6 -4
-9 -8z"/>
<path d="M3376 52 c-3 -5 1 -9 9 -9 8 0 12 4 9 9 -3 4 -7 8 -9 8 -2 0 -6 -4
-9 -8z"/>
</g>
</svg>
